name sv09_filtered_grf.mot
datacolumns 37
datarows 5
range 1.816000 1.818000
endheader
time	1_ground_force_vx	1_ground_force_vy	1_ground_force_vz	1_ground_force_px	1_ground_force_py	1_ground_force_pz	1_ground_torque_x	1_ground_torque_y	1_ground_torque_z	2_ground_force_vx	2_ground_force_vy	2_ground_force_vz	2_ground_force_px	2_ground_force_py	2_ground_force_pz	2_ground_torque_x	2_ground_torque_y	2_ground_torque_z	3_ground_force_vx	3_ground_force_vy	3_ground_force_vz	3_ground_force_px	3_ground_force_py	3_ground_force_pz	3_ground_torque_x	3_ground_torque_y	3_ground_torque_z	4_ground_force_vx	4_ground_force_vy	4_ground_force_vz	4_ground_force_px	4_ground_force_py	4_ground_force_pz	4_ground_torque_x	4_ground_torque_y	4_ground_torque_z
            1.816000	          -42.750186	          366.554794	           10.978405	            0.186626	            0.000000	            0.247358	           -0.634565	            5.440982	            0.162959	           39.047944	          312.349880	            5.796055	           -0.215827	            0.000000	            0.292078	           -0.147838	           -1.182578	           -0.021944	           16.717436	            0.477398	           -1.533412	            0.381445	            1.022578	            1.096178	           -0.106236	           -0.003034	            0.009745	          -12.953327	            0.519183	           -0.127121	           -0.491998	            1.020467	            1.099097	           -0.001054	            0.000042	           -0.000010
            1.816500	          -42.739447	          366.608185	           10.975075	            0.186625	            0.000000	            0.247339	           -0.634682	            5.444141	            0.162980	           39.065150	          312.234444	            5.810255	           -0.215830	            0.000000	            0.292019	           -0.147781	           -1.181162	           -0.021980	           16.716006	            0.479266	           -1.516979	            0.381437	            1.022577	            1.096177	           -0.106442	           -0.003052	            0.009660	          -12.990266	            0.514030	           -0.108407	           -0.491996	            1.020465	            1.099096	           -0.000698	            0.000028	           -0.000006
            1.817000	          -42.729121	          366.660722	           10.970615	            0.186624	            0.000000	            0.247322	           -0.634808	            5.447319	            0.162986	           39.081630	          312.118222	            5.825328	           -0.215834	            0.000000	            0.291960	           -0.147738	           -1.179881	           -0.022021	           16.712856	            0.481752	           -1.499971	            0.381430	            1.022575	            1.096177	           -0.106626	           -0.003074	            0.009570	          -13.026866	            0.509611	           -0.090095	           -0.491993	            1.020463	            1.099095	           -0.000310	            0.000012	           -0.000002
            1.817500	          -42.719286	          366.712514	           10.965047	            0.186624	            0.000000	            0.247306	           -0.634944	            5.450514	            0.162975	           39.097354	          312.001414	            5.841336	           -0.215837	            0.000000	            0.291899	           -0.147709	           -1.178733	           -0.022068	           16.708016	            0.484800	           -1.482514	            0.381422	            1.022573	            1.096176	           -0.106785	           -0.003098	            0.009475	          -13.063049	            0.505983	           -0.072254	           -0.491991	            1.020461	            1.099093	            0.000106	           -0.000004	            0.000001
            1.818000	          -42.710019	          366.763671	           10.958400	            0.186624	            0.000000	            0.247292	           -0.635092	            5.453721	            0.162950	           39.112300	          311.884223	            5.858338	           -0.215840	            0.000000	            0.291837	           -0.147693	           -1.177714	           -0.022122	           16.701571	            0.488357	           -1.464498	            0.381415	            1.022570	            1.096176	           -0.106917	           -0.003126	            0.009375	          -13.098729	            0.503197	           -0.054746	           -0.491988	            1.020459	            1.099091	            0.000546	           -0.000021	            0.000002
